<?xml version="1.0" encoding="UTF-8" standalone="no"?>
<svg
   xmlns:dc="http://purl.org/dc/elements/1.1/"
   xmlns:cc="http://creativecommons.org/ns#"
   xmlns:rdf="http://www.w3.org/1999/02/22-rdf-syntax-ns#"
   xmlns:svg="http://www.w3.org/2000/svg"
   xmlns="http://www.w3.org/2000/svg"
   xmlns:sodipodi="http://sodipodi.sourceforge.net/DTD/sodipodi-0.dtd"
   xmlns:inkscape="http://www.inkscape.org/namespaces/inkscape"
   sodipodi:docname="icons.svg"
   inkscape:version="1.0 (4035a4fb49, 2020-05-01)"
   version="1.1"
   id="svg2"
   viewBox="0 0 744.09448819 1052.3622047"
   height="297mm"
   width="210mm">
  <defs
     id="defs4" />
  <sodipodi:namedview
     inkscape:document-rotation="0"
     inkscape:window-maximized="1"
     inkscape:window-y="-8"
     inkscape:window-x="-8"
     inkscape:window-height="1052"
     inkscape:window-width="1920"
     showgrid="false"
     inkscape:current-layer="layer1"
     inkscape:document-units="px"
     inkscape:cy="-65.412892"
     inkscape:cx="1740.9055"
     inkscape:zoom="0.12279652"
     inkscape:pageshadow="2"
     inkscape:pageopacity="0.0"
     borderopacity="1.0"
     bordercolor="#666666"
     pagecolor="#ffffff"
     id="base" />
  <metadata
     id="metadata7">
    <rdf:RDF>
      <cc:Work
         rdf:about="">
        <dc:format>image/svg+xml</dc:format>
        <dc:type
           rdf:resource="http://purl.org/dc/dcmitype/StillImage" />
        <dc:title />
      </cc:Work>
    </rdf:RDF>
  </metadata>
  <g
     id="layer1"
     inkscape:groupmode="layer"
     inkscape:label="Layer 1">
    <path
       inkscape:export-ydpi="50"
       inkscape:export-xdpi="50"
       d="m 2829.7158,-48.61026 c -138.9143,0 -251.4991,112.586492 -251.4991,251.50085 0,138.91437 112.5848,251.49903 251.4991,251.49903 138.9144,0 251.5007,-112.58466 251.5007,-251.49903 0,-138.914358 -112.5863,-251.50085 -251.5007,-251.50085 z m -97.0624,91.757812 c 11.003,0 19.8449,9.038338 19.8449,19.844971 0,10.806634 -8.8419,19.844971 -19.8449,19.844971 -11.0032,0 -19.845,-9.038337 -19.845,-19.844971 0,-11.003117 8.8418,-19.844971 19.845,-19.844971 z m -15.1301,63.662108 h 30.2582 v 95.09765 115.33631 h -30.2582 z m 74.665,0 h 81.7364 c 77.8078,0 111.9965,55.60444 111.9965,105.31494 0,54.03317 -42.2439,105.31495 -111.6029,105.31495 h -82.13 z m 30.2582,27.31018 v 156.00952 h 48.1383 c 68.5731,0 84.2909,-52.06884 84.2909,-78.00476 0,-42.2441 -26.9184,-78.00476 -85.8637,-78.00476 z"
       style="fill:#000000;fill-opacity:1;stroke-width:1.96484"
       id="path4" />
    <path
       inkscape:export-ydpi="50"
       inkscape:export-xdpi="50"
       inkscape:connector-curvature="0"
       id="path4229"
       d="m 1163.1785,-970.9474 a 250,250 0 0 0 -249.99998,249.99998 250,250 0 0 0 249.99998,250 250,250 0 0 0 250,-250 250,250 0 0 0 -250,-249.99998 z m 73.5059,112.50389 c 15.9851,-0.17126 32.4624,6.16362 45.1445,18.8457 23.8721,23.87214 25.2549,61.1943 3.0879,83.36133 l -60.2051,60.20508 c -22.167,22.16702 -59.4892,20.78425 -83.3613,-3.08789 -4.7787,-4.77872 -8.6502,-10.09722 -11.6172,-15.72461 0.657,-0.49284 1.311,-0.99018 1.9785,-1.4707 8.1261,-4.51972 19.3337,-5.919 26.627,0.8457 3.1037,2.02217 6.9541,2.31407 10.3554,1.2207 12.4578,5.46456 29.9867,1.02115 43.0059,-11.99804 l 43.0039,-43.00391 c 15.8335,-15.83358 18.9927,-38.34517 7.0566,-50.28125 -11.9361,-11.93607 -34.4477,-8.77499 -50.2812,7.05859 l -43.0039,43.00391 c -0.9083,0.90832 -1.7715,1.83812 -2.5957,2.78711 -4.0635,-1.54769 -8.2518,-2.75412 -12.4805,-3.60352 -7.963,-1.4771 -16.2119,-1.47201 -24.209,-0.0742 2.3833,-4.36861 5.4041,-8.45287 9.0723,-12.1211 l 60.2051,-60.20508 c 10.3907,-10.39079 24.1122,-15.6067 38.2168,-15.75781 z m -96.8243,96.82227 c 15.9852,-0.17126 32.4645,6.16362 45.1465,18.8457 4.7787,4.77872 8.6483,10.09724 11.6153,15.72461 -0.657,0.49285 -1.3091,0.99016 -1.9766,1.4707 -8.1262,4.51973 -19.3356,5.91901 -26.6289,-0.8457 -3.1037,-2.02218 -6.9522,-2.31403 -10.3535,-1.2207 -12.4578,-5.46456 -29.9887,-1.02307 -43.0078,11.99609 l -43.0039,43.00391 c -15.8336,15.83359 -18.9927,38.34518 -7.0567,50.28125 11.9361,11.93608 34.4477,8.77694 50.2813,-7.05664 l 43.0039,-43.00391 c 0.9083,-0.90828 1.7734,-1.84011 2.5976,-2.78906 4.0634,1.54769 8.2518,2.75409 12.4805,3.60351 7.963,1.4771 16.2099,1.47395 24.207,0.0762 -2.3833,4.3686 -5.4021,8.45286 -9.0703,12.1211 l -60.207,60.20508 c -22.167,22.16702 -59.4891,20.78426 -83.3613,-3.08789 -23.8721,-23.87215 -25.253,-61.19431 -3.086,-83.36133 l 60.2051,-60.20508 c 10.3908,-10.39079 24.1103,-15.6067 38.2148,-15.75781 z"
       style="opacity:1;fill:#000000;fill-opacity:1;fill-rule:evenodd;stroke:#ffffff;stroke-width:3;stroke-linecap:round;stroke-linejoin:round;stroke-miterlimit:4;stroke-dasharray:none;stroke-dashoffset:0;stroke-opacity:1" />
    <path
       inkscape:export-ydpi="50"
       inkscape:export-xdpi="50"
       inkscape:connector-curvature="0"
       id="path4226"
       d="M 520.14961,147.19309 A 250.00012,250.00012 0 0 0 270.149,397.19246 250.00012,250.00012 0 0 0 520.14961,647.19307 250.00012,250.00012 0 0 0 770.14901,397.19246 250.00012,250.00012 0 0 0 520.14961,147.19309 Z m -33.82686,99.09662 168.01096,0 -12.0744,9.84228 c -5.1699,9.70157 -4.3392,22.42144 2.6658,34.62441 0,0 1.4927,62.94769 2.2394,94.42172 -0.5502,13.56404 -6.4424,15.30391 -11.648,15.681 -6.4194,-0.0548 -11.6954,-2.77107 -12.5448,-14.33587 l 1.4505,-95.60882 c 4.0237,-8.38292 8.4466,-14.84926 4.9848,-24.30556 l -47.3027,38.55813 c 5.5342,9.46507 8.7969,20.21133 9.0619,31.45879 0.4326,18.35884 -12.4798,37.1893 -31.7405,48.75201 -6.0242,5.85155 -9.0091,13.09337 -7.8602,21.10321 2.2149,15.44135 30.3859,28.65028 38.334,37.69935 11.5288,13.12575 14.1504,30.54737 13.8226,44.32825 0.035,1.47414 -0.028,2.96194 -0.2009,4.46051 -3.8017,33.04481 -40.9383,54.80686 -86.1697,55.12365 -47.76466,0.33452 -86.16212,-21.44773 -85.85471,-52.59019 0.31675,-32.09438 37.77135,-58.48623 86.17081,-59.11984 3.8264,-0.0501 7.6127,0.0752 11.3405,0.35894 -9.5096,-14.81224 -11.5312,-28.12987 -6.9424,-40.12746 -0.5671,0.0213 -1.1357,0.037 -1.7054,0.0454 -43.01519,0.63362 -68.27071,-24.88752 -69.53792,-59.71769 -0.0458,-1.25026 -0.0471,-2.4952 -0.0125,-3.73404 l -64.84588,0 100.35847,-86.91811 z m 25.84056,37.30855 c -3.4003,0.0104 -6.7573,0.57617 -9.9942,1.75431 -20.71619,7.54008 -28.88255,37.92729 -17.18295,65.08354 11.68145,27.11398 34.75905,43.62792 55.15065,36.43506 20.4492,-7.2132 28.6389,-35.95359 18.5256,-63.73962 -8.5331,-23.44447 -28.1373,-39.58955 -46.4991,-39.53329 z m 9.9391,160.8994 c -33.41854,1e-5 -60.82593,18.38121 -60.50911,45.30219 0.29442,25.01841 24.55614,45.3034 60.50911,45.30341 33.4186,10e-6 59.8767,-11.41273 60.5103,-45.30341 0.4677,-25.0158 -27.0917,-45.3022 -60.5103,-45.30219 z"
       style="opacity:1;fill:#000000;fill-opacity:1;fill-rule:evenodd;stroke:#ffffff;stroke-width:3;stroke-linecap:round;stroke-linejoin:round;stroke-miterlimit:4;stroke-dasharray:none;stroke-dashoffset:0;stroke-opacity:1" />
    <path
       inkscape:export-ydpi="50"
       inkscape:export-xdpi="50"
       id="circle4178"
       d="M -150 298.07617 A 250 250 0 0 0 -400 548.07617 A 250 250 0 0 0 -150 798.07617 A 250 250 0 0 0 100 548.07617 A 250 250 0 0 0 -150 298.07617 z M -258.10156 405.6875 A 34.597725 34.597725 0 0 1 -223.50391 440.28516 A 34.597725 34.597725 0 0 1 -258.10156 474.88281 A 34.597725 34.597725 0 0 1 -292.69922 440.28516 A 34.597725 34.597725 0 0 1 -258.10156 405.6875 z M -73.931641 495.60156 L -73.931641 495.60352 C -28.808781 496.46454 -8.7875681 526.51432 -7.3613281 580.35938 L -7.3007812 580.35938 L -7.3007812 690.4668 L -66.929688 690.4668 L -66.929688 582.48438 C -68.110278 563.29147 -74.827844 548.89592 -96.115234 547.12891 C -113.27376 546.21492 -126.4346 555.79549 -135.08594 577.21289 L -135.08594 690.4668 L -192.18945 690.4668 L -192.18945 500.05273 L -135.08594 500.05273 L -135.08594 525.16797 C -121.3189 506.2766 -102.80023 496.1591 -78.4375 495.61133 C -76.9089 495.57683 -75.406431 495.57346 -73.931641 495.60156 z M -288.1543 500.05078 L -228.04883 500.05078 L -228.04883 690.46484 L -288.1543 690.46484 L -288.1543 500.05078 z "
       style="opacity:1;fill:#000000;fill-opacity:1;fill-rule:evenodd;stroke:#ffffff;stroke-width:3;stroke-linecap:round;stroke-linejoin:round;stroke-miterlimit:4;stroke-dasharray:none;stroke-dashoffset:0;stroke-opacity:1" />
    <path
       inkscape:connector-curvature="0"
       inkscape:export-ydpi="50"
       inkscape:export-xdpi="50"
       id="path4188"
       d="m -176.2851,-271.92278 a 250,250 0 0 0 -250,249.999998 250,250 0 0 0 250,250.000002 A 250,250 0 0 0 73.714896,-21.922782 250,250 0 0 0 -176.2851,-271.92278 Z m -79.03906,136.85742 c 21.3623,0 39.36718,2.69449 54.01562,8.08593 l 0,47.455078 c -14.64844,-8.74837 -31.33138,-13.12304 -50.04883,-13.12304 -20.5485,0 -37.1302,6.4598 -49.74414,19.3789 -12.61393,12.91911 -18.91992,30.41586 -18.91992,52.49024 0,21.15884995 5.94971,38.04622 17.85156,50.66015 11.90186,12.51221 27.92481,18.76758 48.06641,18.76758 19.22607,0 36.82406,-4.67839 52.79492,-14.03711 l 0,45.01172 c -15.97086,7.73111 -36.82405,11.59766 -62.56055,11.59766 -33.56933,0 -59.96728,-9.86687 -79.19335,-29.60157 -19.22608,-19.7347 -28.83985,-46.03141 -28.83985,-78.88867 0,-34.99348 10.78386,-63.37532 32.34961,-85.144528 21.66748,-21.76921 49.74365,-32.65234 84.22852,-32.65234 z m 68.96875,3.66211 53.10156,0 45.623046,152.281248 c 2.4414,8.23974 3.91715,15.51334 4.42578,21.82031 l 0.91406,0 c 0.71208,-6.81559 2.28906,-14.29167 4.73047,-22.42969 l 45.31836,-151.671868 51.57617,0 -75.37891,218.810538 -55.847646,0 -74.46289,-218.810538 z"
       style="opacity:1;fill:#000000;fill-opacity:1;fill-rule:evenodd;stroke:#ffffff;stroke-width:3;stroke-linecap:round;stroke-linejoin:round;stroke-miterlimit:4;stroke-dasharray:none;stroke-dashoffset:0;stroke-opacity:1" />
    <path
       inkscape:connector-curvature="0"
       inkscape:export-ydpi="50"
       inkscape:export-xdpi="50"
       id="path4259"
       d="m 417.68593,-514.35866 a 250,250 0 0 0 -250,250 250,250 0 0 0 250,249.999998 250,250 0 0 0 250,-249.999998 250,250 0 0 0 -250,-250 z m -150,151.42774 300,0 -150,117.48437 -150,-117.48437 z m 300,21.42968 0,175.71289 -300,0 0,-174.17187 150,115.94141 150,-117.48243 z"
       style="opacity:1;fill:#000000;fill-opacity:1;fill-rule:evenodd;stroke:#ffffff;stroke-width:3;stroke-linecap:round;stroke-linejoin:round;stroke-miterlimit:4;stroke-dasharray:none;stroke-dashoffset:0;stroke-opacity:1" />
    <path
       inkscape:export-ydpi="50"
       inkscape:export-xdpi="50"
       sodipodi:nodetypes="sssssccccccccccccccccsssssssssssssssssssss"
       inkscape:connector-curvature="0"
       id="path4282"
       d="m 1348.6996,-342.82614 c -138.0712,0 -250,111.92881 -250,250.000005 0,138.071186 111.9288,249.999995 250,249.999995 138.0711,0 249.9999,-111.928809 249.9999,-249.999995 0,-138.071195 -111.9288,-250.000005 -249.9999,-250.000005 z m -90.3946,109.74267 h 205.9083 V 31.916051 h -18.51 V -218.61547 H 1258.305 Z m -26.2656,25.20264 h 8.7559 17.5097 174.6445 v 239.796881 13.46875 6.73437 h -200.9101 z m 35.4551,35.80664 c -2.2092,0 -4,2.23857 -4,5 0,2.76142 1.7908,5 4,5 h 129.9999 c 2.2091,0 4,-2.23858 4,-5 0,-2.76143 -1.7909,-5 -4,-5 z m 0,28.04883 c -2.2091,0 -4,2.23857 -4,5 0,2.76142 1.7909,5 4,5 h 73 c 2.2091,0 4,-2.23858 4,-5 0,-2.76143 -1.7909,-5 -4,-5 z m 0,28.05078 c -2.2091,0 -4,2.23857 -4,5 0,2.76142 1.7909,5 4,5 h 73 c 2.2091,0 4,-2.23858 4,-5 0,-2.76143 -1.7909,-5 -4,-5 z"
       style="opacity:1;fill:#000000;fill-opacity:1;fill-rule:evenodd;stroke:#ffffff;stroke-width:3;stroke-linecap:round;stroke-linejoin:round;stroke-miterlimit:4;stroke-dasharray:none;stroke-dashoffset:0;stroke-opacity:1" />
    <path
       inkscape:export-ydpi="50"
       inkscape:export-xdpi="50"
       inkscape:connector-curvature="0"
       id="path4380"
       d="m 1473.9281,356.3061 a 250,250 0 0 0 -250,250 250,250 0 0 0 188.5008,241.99217 c -0.3541,-20.9975 -1.3437,-42.36704 -1.0091,-61.95475 -17.37,1.42162 -42.1204,0.99912 -57.3079,-4.75258 -19.0655,-7.22059 -22.8517,-22.78388 -27.8159,-32.38934 -8.5833,-16.60925 -21.8125,-23.78371 -36.3037,-39.98208 -7.85,-8.77454 11.8837,-13.73283 30.9816,-0.54525 14.3075,9.87946 17.1613,23.34146 36.8896,40.52733 13.9788,12.17725 38.885,8.2995 57.1288,-0.96841 2.7579,-13.10721 7.4287,-23.91992 15.2425,-31.11167 -66.8225,-9.74792 -115.1384,-43.55742 -116.0317,-119.18129 -0.3083,-26.21092 9.1408,-48.96579 25.5046,-67.39096 -3.6908,-22.72496 -4.6658,-45.74692 2.3679,-69.66146 1.665,-0.0696 3.3413,-0.0783 5.0213,-0.0333 21.9366,0.59471 45.1579,10.80575 69.002,25.708 18.9538,-5.08054 39.6146,-7.78809 61.1984,-7.78809 20.835,-4e-5 40.5162,2.21255 58.4879,6.56738 24.955,-15.33596 49.2054,-25.40483 71.9887,-24.45475 6.7325,22.88996 6.1384,44.96258 2.84,66.73992 15.9638,18.66095 25.1113,42.62287 25.0492,71.89125 -0.1625,76.69862 -47.8333,109.292 -115.4867,118.11525 23.3038,22.37762 18.1917,77.57416 17.2688,130.31412 a 250,250 0 0 0 186.4829,-241.64225 250,250 0 0 0 -250,-250 z"
       style="opacity:1;fill:#000000;fill-opacity:1;fill-rule:evenodd;stroke:#ffffff;stroke-width:3;stroke-linecap:round;stroke-linejoin:round;stroke-miterlimit:4;stroke-dasharray:none;stroke-dashoffset:0;stroke-opacity:1" />
    <g
       transform="translate(517.1981,222.23356)"
       id="g4243">
      <path
         id="path4245"
         d="m 1932.5191,-783.18222 c -23.8721,-23.87214 -61.1944,-25.25435 -83.3614,-3.08733 l -60.2052,60.20517 c -22.167,22.16702 -20.7848,59.48932 3.0873,83.36146 23.8722,23.87215 61.1945,25.25436 83.3615,3.08734 l 60.2052,-60.20517 c 3.6682,-3.66824 6.6887,-7.75279 9.072,-12.12139 -7.9971,1.39778 -16.2452,1.4019 -24.2082,-0.0752 -4.2287,-0.84942 -8.4176,-2.05544 -12.481,-3.60313 -0.8242,0.94895 -1.6877,1.88018 -2.596,2.78846 l -43.0041,43.00405 c -15.8336,15.83359 -38.3452,18.99297 -50.2813,7.05689 -11.936,-11.93607 -8.7767,-34.4477 7.0569,-50.28129 l 43.0041,-43.00405 c 13.0191,-13.01916 30.5488,-17.46102 43.0066,-11.99646 3.4013,-1.09333 7.2499,-0.80142 10.3536,1.22076 7.2933,6.76471 18.5023,5.36563 26.6285,0.8459 0.6675,-0.48054 1.3203,-0.97777 1.9773,-1.47062 -2.967,-5.62737 -6.8371,-10.94671 -11.6158,-15.72543 z"
         style="opacity:1;fill:#7f0000;fill-opacity:1;fill-rule:evenodd;stroke:none;stroke-width:3;stroke-linecap:round;stroke-linejoin:round;stroke-miterlimit:4;stroke-dasharray:none;stroke-dashoffset:0;stroke-opacity:1"
         inkscape:connector-curvature="0" />
      <path
         inkscape:connector-curvature="0"
         style="opacity:1;fill:#7f0000;fill-opacity:1;fill-rule:evenodd;stroke:none;stroke-width:3;stroke-linecap:round;stroke-linejoin:round;stroke-miterlimit:4;stroke-dasharray:none;stroke-dashoffset:0;stroke-opacity:1"
         d="m 1888.8625,-739.52557 c 23.8721,23.87214 61.1944,25.25437 83.3614,3.08735 l 60.2052,-60.2052 c 22.167,-22.16703 20.7848,-59.48931 -3.0873,-83.36145 -23.8722,-23.87215 -61.1945,-25.25438 -83.3615,-3.08735 l -60.2052,60.2052 c -3.6682,3.66823 -6.6887,7.75277 -9.072,12.12137 7.9971,-1.39779 16.2452,-1.4019 24.2082,0.0752 4.2287,0.8494 8.4175,2.05545 12.481,3.60314 0.8242,-0.94899 1.6877,-1.88017 2.596,-2.78849 l 43.0041,-43.00404 c 15.8335,-15.83358 38.3452,-18.99298 50.2813,-7.05691 11.9361,11.93608 8.7766,34.44773 -7.0569,50.28131 l -43.0041,43.00404 c -13.0192,13.01919 -30.5488,17.46101 -43.0066,11.99645 -3.4013,1.09337 -7.2499,0.80143 -10.3536,-1.22074 -7.2933,-6.7647 -18.5024,-5.36562 -26.6285,-0.8459 -0.6675,0.48052 -1.3203,0.97778 -1.9773,1.47062 2.967,5.62739 6.8371,10.94671 11.6158,15.72543 z"
         id="path4247" />
    </g>
  </g>
</svg>
